<svg preserveAspectRatio="none" overflow="visible" style="display: block;" width="480" height="620" viewBox="0 0 480 620" fill="none" xmlns="http://www.w3.org/2000/svg">
<g id="Subtract">
<mask id="path-1-inside-1_0_36" fill="white">
<path fill-rule="evenodd" clip-rule="evenodd" d="M32 0C14.3269 0 0 14.3269 0 32V588C0 605.673 14.3269 620 32 620H160C175.464 620 188 607.464 188 592C188 576.536 200.536 564 216 564H336C351.464 564 364 576.536 364 592C364 607.464 376.536 620 392 620H448C465.673 620 480 605.673 480 588V32C480 14.3269 465.673 0 448 0H32Z"/>
</mask>
<path fill-rule="evenodd" clip-rule="evenodd" d="M32 0C14.3269 0 0 14.3269 0 32V588C0 605.673 14.3269 620 32 620H160C175.464 620 188 607.464 188 592C188 576.536 200.536 564 216 564H336C351.464 564 364 576.536 364 592C364 607.464 376.536 620 392 620H448C465.673 620 480 605.673 480 588V32C480 14.3269 465.673 0 448 0H32Z" fill="url(#paint0_linear_0_36)"/>
<path d="M0 32H1C1 14.8792 14.8792 1 32 1V0V-1C13.7746 -1 -1 13.7746 -1 32H0ZM0 588H1V32H0H-1V588H0ZM32 620V619C14.8792 619 1 605.121 1 588H0H-1C-1 606.225 13.7746 621 32 621V620ZM160 620V619H32V620V621H160V620ZM216 564V565H336V564V563H216V564ZM448 620V619H392V620V621H448V620ZM480 588H479C479 605.121 465.121 619 448 619V620V621C466.225 621 481 606.225 481 588H480ZM480 32H479V588H480H481V32H480ZM448 0V1C465.121 1 479 14.8792 479 32H480H481C481 13.7746 466.225 -1 448 -1V0ZM32 0V1H448V0V-1H32V0ZM364 592H363C363 608.016 375.984 621 392 621V620V619C377.088 619 365 606.912 365 592H364ZM336 564V565C350.912 565 363 577.088 363 592H364H365C365 575.984 352.016 563 336 563V564ZM188 592H189C189 577.088 201.088 565 216 565V564V563C199.984 563 187 575.984 187 592H188ZM160 620V621C176.016 621 189 608.016 189 592H188H187C187 606.912 174.912 619 160 619V620Z" fill="url(#paint1_linear_0_36)" fill-opacity="0.08" mask="url(#path-1-inside-1_0_36)"/>
</g>
<defs>
<linearGradient id="paint0_linear_0_36" x1="240" y1="0" x2="240" y2="620" gradientUnits="userSpaceOnUse">
<stop stop-color="#1B1B1B" stop-opacity="0"/>
<stop offset="1" stop-color="#1B1B1B"/>
</linearGradient>
<linearGradient id="paint1_linear_0_36" x1="240" y1="0" x2="240" y2="620" gradientUnits="userSpaceOnUse">
<stop stop-color="white" stop-opacity="0"/>
<stop offset="1" stop-color="white"/>
</linearGradient>
</defs>
</svg>
